# xmcd
# Copyright (C) 1995-1998 Ti Kan
#
# Track frame offsets:
#       150
#       26397
#       45223
#       75780
#
# Disc length: 1250 seconds
#
# Revision: 0
# Processed by: cddbd v1.5.2PL0 Copyright (c) Steve Scherf et al.
# Submitted via: CD-Import v1.0
#
DISCID=1504e004
DTITLE=Monorev - Monorev
DYEAR=07
DGENRE=
TTITLE0=Waiting
TTITLE1=Headlights
TTITLE2=Greener Grass
TTITLE3=Ten Dollar Smile
EXTD=
EXTT0=
EXTT1=
EXTT2=
EXTT3=
PLAYORDER=
